<svg version="1.1" id="Layer_1" xmlns="http://www.w3.org/2000/svg" xmlns:xlink="http://www.w3.org/1999/xlink" x="0px" y="0px" width="100%" viewBox="0 0 900 900" enable-background="new 0 0 900 900" xml:space="preserve">
  <g transform="translate(0 0) scale(0.6) translate(0 0)">
  <path fill="#FFFFFF" opacity="0.000000" stroke="none" d="
M571.000000,901.000000 
	C380.666656,901.000000 190.833328,901.000000 1.000000,901.000000 
	C1.000000,601.000000 1.000000,301.000000 1.000000,1.000000 
	C301.000000,1.000000 601.000000,1.000000 901.000000,1.000000 
	C901.000000,301.000000 901.000000,601.000000 901.000000,901.000000 
	C791.166687,901.000000 681.333313,901.000000 571.000000,901.000000 
M560.614624,684.038391 
	C589.797180,677.853577 618.352783,669.505493 646.272461,659.015137 
	C674.214478,648.516357 690.921753,623.834778 690.351990,594.146545 
	C689.791931,564.966125 672.236145,540.792480 645.049377,531.726440 
	C627.464050,525.862244 609.870422,527.660339 592.291870,531.678040 
	C569.259033,536.942383 546.380493,543.004639 523.184631,547.398865 
	C497.741943,552.218811 472.466156,550.876526 448.061523,540.906128 
	C433.973083,535.150391 422.650848,526.567810 416.035339,512.448792 
	C403.624664,485.961487 412.774323,445.441864 435.462158,426.940186 
	C444.838379,419.293976 455.167603,415.789734 467.480927,418.263916 
	C475.120728,419.799042 482.999847,420.301727 490.800964,420.847717 
	C524.412354,423.200226 558.035645,423.505951 591.672607,421.196075 
	C617.125122,419.448242 642.508179,417.234344 666.924683,409.189697 
	C685.565735,403.047974 693.406616,391.847900 691.808838,372.267395 
	C690.783081,359.697235 689.205261,347.005127 686.147827,334.800354 
	C678.228210,303.186157 669.480774,271.776123 660.817932,240.352371 
	C653.820801,214.971008 636.602600,199.643158 611.154480,195.632446 
	C596.557007,193.331833 581.205444,194.132401 566.355042,195.412186 
	C504.165466,200.771545 445.038116,217.594635 388.959839,244.989014 
	C341.798889,268.027252 299.433685,297.708313 264.385284,337.069397 
	C220.443268,386.418457 191.894012,442.990417 186.757401,509.699432 
	C183.586731,550.876953 195.189301,587.817444 222.598755,619.191528 
	C246.113617,646.107788 276.114166,663.213318 309.272858,675.277832 
	C341.105682,686.859863 374.092438,692.815430 407.804077,695.332825 
	C459.031677,699.158142 509.618774,694.661865 560.614624,684.038391 
z"/>
  <path fill="#F8631A" opacity="1.000000" stroke="none" d="
M560.198608,684.114014 
	C509.618774,694.661865 459.031677,699.158142 407.804077,695.332825 
	C374.092438,692.815430 341.105682,686.859863 309.272858,675.277832 
	C276.114166,663.213318 246.113617,646.107788 222.598755,619.191528 
	C195.189301,587.817444 183.586731,550.876953 186.757401,509.699432 
	C191.894012,442.990417 220.443268,386.418457 264.385284,337.069397 
	C299.433685,297.708313 341.798889,268.027252 388.959839,244.989014 
	C445.038116,217.594635 504.165466,200.771545 566.355042,195.412186 
	C581.205444,194.132401 596.557007,193.331833 611.154480,195.632446 
	C636.602600,199.643158 653.820801,214.971008 660.817932,240.352371 
	C669.480774,271.776123 678.228210,303.186157 686.147827,334.800354 
	C689.205261,347.005127 690.783081,359.697235 691.808838,372.267395 
	C693.406616,391.847900 685.565735,403.047974 666.924683,409.189697 
	C642.508179,417.234344 617.125122,419.448242 591.672607,421.196075 
	C558.035645,423.505951 524.412354,423.200226 490.800964,420.847717 
	C482.999847,420.301727 475.120728,419.799042 467.480927,418.263916 
	C455.167603,415.789734 444.838379,419.293976 435.462158,426.940186 
	C412.774323,445.441864 403.624664,485.961487 416.035339,512.448792 
	C422.650848,526.567810 433.973083,535.150391 448.061523,540.906128 
	C472.466156,550.876526 497.741943,552.218811 523.184631,547.398865 
	C546.380493,543.004639 569.259033,536.942383 592.291870,531.678040 
	C609.870422,527.660339 627.464050,525.862244 645.049377,531.726440 
	C672.236145,540.792480 689.791931,564.966125 690.351990,594.146545 
	C690.921753,623.834778 674.214478,648.516357 646.272461,659.015137 
	C618.352783,669.505493 589.797180,677.853577 560.198608,684.114014 
M315.389008,340.889191 
	C314.055817,342.146271 312.709930,343.390198 311.391266,344.662354 
	C271.671021,382.982849 241.823257,427.276398 228.260651,481.513214 
	C220.604889,512.128662 223.319931,541.707520 237.332504,569.942932 
	C250.322632,596.118042 271.380157,614.424988 296.811584,627.925781 
	C336.512817,649.002136 379.590942,656.645203 423.881104,658.857971 
	C463.299622,660.827393 502.447937,657.928589 541.256226,650.796387 
	C573.590149,644.854004 605.158508,636.160095 635.617188,623.658691 
	C641.955872,621.057068 647.155518,617.063232 650.637085,611.042603 
	C656.530640,600.850830 655.219788,586.808044 647.433716,576.718323 
	C639.400452,566.308105 627.855225,562.553162 614.991638,565.854065 
	C584.362671,573.713684 553.734802,581.626404 522.272339,585.544800 
	C495.629364,588.862976 469.007874,589.727600 443.144897,581.000122 
	C410.956482,570.138000 387.267792,549.355225 377.246216,516.532837 
	C364.956055,476.280426 374.582275,439.661041 401.911804,408.161652 
	C421.032867,386.123199 445.588318,377.454803 474.958069,381.266510 
	C518.344910,386.897430 561.959961,388.459381 605.530518,383.674835 
	C619.326416,382.159912 632.984619,378.659302 646.442749,375.078430 
	C654.367432,372.969818 656.167542,368.259064 654.092041,360.405762 
	C644.736633,325.007141 634.701904,289.771637 626.219238,254.165894 
	C622.163513,237.142029 604.614319,229.208160 590.940918,230.378372 
	C555.213684,233.435959 519.948120,239.347061 485.415527,249.173401 
	C422.231598,267.152588 364.797302,295.853241 315.389008,340.889191 
z"/>
  <path fill="#FFFEFD" opacity="1.000000" stroke="none" d="
M315.653107,340.655823 
	C364.797302,295.853241 422.231598,267.152588 485.415527,249.173401 
	C519.948120,239.347061 555.213684,233.435959 590.940918,230.378372 
	C604.614319,229.208160 622.163513,237.142029 626.219238,254.165894 
	C634.701904,289.771637 644.736633,325.007141 654.092041,360.405762 
	C656.167542,368.259064 654.367432,372.969818 646.442749,375.078430 
	C632.984619,378.659302 619.326416,382.159912 605.530518,383.674835 
	C561.959961,388.459381 518.344910,386.897430 474.958069,381.266510 
	C445.588318,377.454803 421.032867,386.123199 401.911804,408.161652 
	C374.582275,439.661041 364.956055,476.280426 377.246216,516.532837 
	C387.267792,549.355225 410.956482,570.138000 443.144897,581.000122 
	C469.007874,589.727600 495.629364,588.862976 522.272339,585.544800 
	C553.734802,581.626404 584.362671,573.713684 614.991638,565.854065 
	C627.855225,562.553162 639.400452,566.308105 647.433716,576.718323 
	C655.219788,586.808044 656.530640,600.850830 650.637085,611.042603 
	C647.155518,617.063232 641.955872,621.057068 635.617188,623.658691 
	C605.158508,636.160095 573.590149,644.854004 541.256226,650.796387 
	C502.447937,657.928589 463.299622,660.827393 423.881104,658.857971 
	C379.590942,656.645203 336.512817,649.002136 296.811584,627.925781 
	C271.380157,614.424988 250.322632,596.118042 237.332504,569.942932 
	C223.319931,541.707520 220.604889,512.128662 228.260651,481.513214 
	C241.823257,427.276398 271.671021,382.982849 311.391266,344.662354 
	C312.709930,343.390198 314.055817,342.146271 315.653107,340.655823 
M604.103088,340.750153 
	C605.286255,339.833740 606.525879,338.981171 607.643555,337.990814 
	C616.316589,330.305450 618.543335,317.425598 613.034973,306.988129 
	C607.635803,296.757385 596.113037,291.463562 584.760864,293.998566 
	C573.474854,296.518768 565.041809,306.884583 564.880371,318.435608 
	C564.598755,338.580505 584.822449,350.464172 604.103088,340.750153 
M509.845276,299.510986 
	C508.670197,298.893219 507.527985,298.200439 506.315002,297.669189 
	C493.156067,291.906342 478.397614,297.657593 472.532288,310.811432 
	C466.786774,323.696533 472.778900,338.823486 485.900757,344.559753 
	C497.462708,349.614105 511.554871,344.989288 518.003052,334.024292 
	C524.751404,322.548889 521.705811,308.788788 509.845276,299.510986 
z"/>
  <path fill="#F7631B" opacity="1.000000" stroke="none" d="
M603.775452,340.924255 
	C584.822449,350.464172 564.598755,338.580505 564.880371,318.435608 
	C565.041809,306.884583 573.474854,296.518768 584.760864,293.998566 
	C596.113037,291.463562 607.635803,296.757385 613.034973,306.988129 
	C618.543335,317.425598 616.316589,330.305450 607.643555,337.990814 
	C606.525879,338.981171 605.286255,339.833740 603.775452,340.924255 
z"/>
  <path fill="#F7641B" opacity="1.000000" stroke="none" d="
M510.149780,299.714844 
	C521.705811,308.788788 524.751404,322.548889 518.003052,334.024292 
	C511.554871,344.989288 497.462708,349.614105 485.900757,344.559753 
	C472.778900,338.823486 466.786774,323.696533 472.532288,310.811432 
	C478.397614,297.657593 493.156067,291.906342 506.315002,297.669189 
	C507.527985,298.200439 508.670197,298.893219 510.149780,299.714844 
z"/>
</g>
</svg>
